<svg width="228" height="65" viewBox="0 0 228 65" fill="none" xmlns="http://www.w3.org/2000/svg">
<path d="M203.475 9.80742C202.294 11.8896 201.265 13.5795 201.204 13.5795C201.113 13.5795 200.629 12.7647 200.084 11.7689C199.538 10.7731 198.963 9.95831 198.781 9.95831C198.63 9.95831 197.994 10.2601 197.388 10.6524L196.268 11.3163L197.449 13.3381C198.085 14.4848 199.145 16.2954 199.781 17.3818C200.417 18.4681 201.053 19.3734 201.204 19.3734C201.477 19.3734 208.291 7.93647 208.321 7.48382C208.321 7.27259 206.292 6.03535 205.928 6.03535C205.777 6.03535 204.687 7.72524 203.475 9.80742Z" fill="black"/>
<path d="M210.139 13.9416C208.898 16.1143 207.838 18.0154 207.777 18.1663C207.717 18.287 210.866 18.4077 214.803 18.4077H221.95V16.8989V15.3901H217.559C215.136 15.3901 213.168 15.2995 213.168 15.1788C213.168 15.0883 213.622 14.1528 214.197 13.1268L215.227 11.2559L214.076 10.592C213.44 10.26 212.804 9.95826 212.683 9.95826C212.532 9.95826 211.381 11.7689 210.139 13.9416Z" fill="black"/>
<path d="M190.969 14.3037C190.363 14.696 189.788 15.0581 189.697 15.1487C189.606 15.2392 190.484 16.9291 191.666 18.9509C192.816 20.9426 193.785 22.6626 193.785 22.7532C193.785 22.8437 192.847 22.9342 191.666 22.9342H189.546V24.5939V26.2537H194.391C197.056 26.2537 199.236 26.1631 199.236 26.0726C199.236 25.9217 194.119 16.9291 192.695 14.5753L192.089 13.6398L190.969 14.3037Z" fill="black"/>
<path d="M212.259 23.1757C212.259 23.2964 217.649 32.7115 218.8 34.6126L219.406 35.5481L220.526 34.8842C221.132 34.4919 221.707 34.1298 221.798 34.0393C221.889 33.9487 221.011 32.2588 219.83 30.237C218.679 28.2454 217.71 26.5253 217.71 26.4348C217.71 26.3442 218.679 26.2537 219.83 26.2537H221.95V24.6543V23.0852L217.104 23.055C214.439 23.055 212.259 23.1153 212.259 23.1757Z" fill="black"/>
<path d="M209.169 31.2932C207.11 34.7031 203.476 41.01 203.294 41.4325C203.143 41.8248 204.899 43.1526 205.565 43.1526C205.717 43.1526 206.807 41.4627 208.018 39.3805C209.199 37.2983 210.229 35.6084 210.29 35.6084C210.381 35.6084 210.865 36.4232 211.41 37.419C211.955 38.4149 212.561 39.2296 212.712 39.2296C212.894 39.2296 213.5 38.9279 214.105 38.5356L215.226 37.8717L214.015 35.7593C213.318 34.5824 212.319 32.8322 211.743 31.8364C211.168 30.8405 210.593 29.9051 210.441 29.7843C210.32 29.6335 209.745 30.3275 209.169 31.2932Z" fill="black"/>
<path d="M189.546 32.2889V33.7978H193.937C196.36 33.7978 198.328 33.8883 198.328 34.009C198.328 34.0995 197.874 35.035 197.298 36.0912L196.238 37.9621L197.571 38.6562C198.298 39.0485 198.964 39.2899 199.025 39.2296C199.267 38.9278 203.779 31.0517 203.779 30.9008C203.779 30.8405 200.569 30.7801 196.662 30.7801H189.546V32.2889Z" fill="black"/>
<path d="M11.6607 55.3374L0.473314 23.2811H6.84154L15.6194 49.8298H14.3715L23.1494 23.2811H29.5176L18.3732 55.3374H11.6607ZM38.0039 55.8537C36.3689 55.8537 34.9489 55.5812 33.7441 55.0362C32.5393 54.4912 31.607 53.7167 30.9473 52.7127C30.2875 51.68 29.9576 50.4895 29.9576 49.1413C29.9576 47.8504 30.2445 46.703 30.8182 45.699C31.3919 44.6663 32.2811 43.8058 33.4859 43.1173C34.6907 42.4288 36.2111 41.9412 38.047 41.6543L45.706 40.4065V44.7094L39.1227 45.8281C38.0039 46.0289 37.1721 46.3875 36.627 46.9038C36.082 47.4202 35.8095 48.0943 35.8095 48.9262C35.8095 49.7294 36.1107 50.3748 36.7131 50.8624C37.3442 51.3214 38.1187 51.5509 39.0366 51.5509C40.2127 51.5509 41.2454 51.3071 42.1347 50.8194C43.0526 50.3031 43.7554 49.6003 44.2431 48.711C44.7594 47.8218 45.0176 46.8464 45.0176 45.7851V39.7611C45.0176 38.7571 44.616 37.9252 43.8128 37.2654C43.0383 36.577 42.0056 36.2327 40.7147 36.2327C39.5099 36.2327 38.4342 36.5626 37.4876 37.2224C36.5697 37.8535 35.8955 38.6997 35.4653 39.7611L30.8612 37.5236C31.3202 36.2901 32.0373 35.2287 33.0126 34.3395C34.0166 33.4215 35.1927 32.7044 36.541 32.1881C37.8892 31.6717 39.3522 31.4135 40.9299 31.4135C42.8518 31.4135 44.5443 31.7721 46.0072 32.4893C47.4702 33.1777 48.6033 34.153 49.4065 35.4152C50.2384 36.6487 50.6543 38.0973 50.6543 39.7611V55.3374H45.3188V51.3357L46.5236 51.2497C45.9212 52.2537 45.204 53.0999 44.3722 53.7884C43.5403 54.4481 42.5937 54.9645 41.5323 55.3374C40.4709 55.6816 39.2948 55.8537 38.0039 55.8537ZM55.8641 55.3374V31.9299H61.1567V37.1363L60.7264 36.3618C61.2714 34.612 62.1176 33.3929 63.2651 32.7044C64.4412 32.0159 65.8468 31.6717 67.4818 31.6717H68.8588V36.663H66.8364C65.23 36.663 63.9392 37.165 62.9639 38.169C61.9885 39.1443 61.5009 40.5212 61.5009 42.2998V55.3374H55.8641ZM71.9578 55.3374V31.9299H77.5946V55.3374H71.9578ZM71.9578 29.3051V23.2811H77.5946V29.3051H71.9578ZM89.8987 55.8537C88.2636 55.8537 86.8437 55.5812 85.6389 55.0362C84.4341 54.4912 83.5018 53.7167 82.842 52.7127C82.1823 51.68 81.8524 50.4895 81.8524 49.1413C81.8524 47.8504 82.1392 46.703 82.7129 45.699C83.2867 44.6663 84.1759 43.8058 85.3807 43.1173C86.5855 42.4288 88.1058 41.9412 89.9417 41.6543L97.6008 40.4065V44.7094L91.0174 45.8281C89.8987 46.0289 89.0668 46.3875 88.5218 46.9038C87.9768 47.4202 87.7042 48.0943 87.7042 48.9262C87.7042 49.7294 88.0054 50.3748 88.6078 50.8624C89.2389 51.3214 90.0134 51.5509 90.9314 51.5509C92.1075 51.5509 93.1402 51.3071 94.0294 50.8194C94.9474 50.3031 95.6502 49.6003 96.1378 48.711C96.6542 47.8218 96.9124 46.8464 96.9124 45.7851V39.7611C96.9124 38.7571 96.5108 37.9252 95.7076 37.2654C94.933 36.577 93.9004 36.2327 92.6095 36.2327C91.4047 36.2327 90.329 36.5626 89.3824 37.2224C88.4644 37.8535 87.7903 38.6997 87.36 39.7611L82.756 37.5236C83.2149 36.2901 83.9321 35.2287 84.9074 34.3395C85.9114 33.4215 87.0875 32.7044 88.4357 32.1881C89.784 31.6717 91.2469 31.4135 92.8246 31.4135C94.7466 31.4135 96.439 31.7721 97.902 32.4893C99.365 33.1777 100.498 34.153 101.301 35.4152C102.133 36.6487 102.549 38.0973 102.549 39.7611V55.3374H97.2136V51.3357L98.4184 51.2497C97.816 52.2537 97.0988 53.0999 96.2669 53.7884C95.435 54.4481 94.4884 54.9645 93.427 55.3374C92.3657 55.6816 91.1896 55.8537 89.8987 55.8537ZM107.759 55.3374V31.9299H113.051V36.5339L112.621 35.7164C113.166 34.3108 114.055 33.2494 115.289 32.5323C116.551 31.7865 118.014 31.4135 119.678 31.4135C121.399 31.4135 122.919 31.7865 124.239 32.5323C125.587 33.2781 126.634 34.3251 127.38 35.6734C128.126 36.9929 128.499 38.5276 128.499 40.2774V55.3374H122.862V41.6113C122.862 40.5786 122.661 39.6894 122.26 38.9435C121.858 38.1977 121.299 37.624 120.581 37.2224C119.893 36.7921 119.075 36.577 118.129 36.577C117.211 36.577 116.393 36.7921 115.676 37.2224C114.959 37.624 114.4 38.1977 113.998 38.9435C113.596 39.6894 113.396 40.5786 113.396 41.6113V55.3374H107.759ZM144.539 55.8537C142.215 55.8537 140.121 55.3231 138.256 54.2617C136.421 53.1716 134.972 51.7087 133.911 49.8728C132.849 48.0082 132.318 45.9142 132.318 43.5906C132.318 41.2671 132.849 39.1874 133.911 37.3515C134.972 35.5156 136.421 34.067 138.256 33.0056C140.121 31.9442 142.215 31.4135 144.539 31.4135C146.202 31.4135 147.751 31.7147 149.186 32.3171C150.62 32.8909 151.853 33.694 152.886 34.7267C153.947 35.7307 154.708 36.9355 155.167 38.3411L150.218 40.4926C149.788 39.3164 149.057 38.3698 148.024 37.6527C147.02 36.9355 145.858 36.577 144.539 36.577C143.305 36.577 142.201 36.8782 141.225 37.4806C140.279 38.083 139.533 38.9148 138.988 39.9762C138.443 41.0376 138.17 42.2567 138.17 43.6336C138.17 45.0106 138.443 46.2297 138.988 47.2911C139.533 48.3524 140.279 49.1843 141.225 49.7867C142.201 50.3891 143.305 50.6903 144.539 50.6903C145.887 50.6903 147.063 50.3317 148.067 49.6146C149.071 48.8975 149.788 47.9365 150.218 46.7317L155.167 48.9692C154.708 50.2887 153.962 51.4792 152.929 52.5405C151.896 53.5732 150.663 54.3908 149.229 54.9932C147.794 55.5669 146.231 55.8537 144.539 55.8537ZM170.545 55.8537C168.135 55.8537 166.027 55.3087 164.22 54.2187C162.413 53.1286 161.007 51.6513 160.003 49.7867C158.999 47.9222 158.497 45.8568 158.497 43.5906C158.497 41.2384 158.999 39.1587 160.003 37.3515C161.036 35.5156 162.427 34.067 164.177 33.0056C165.955 31.9442 167.935 31.4135 170.115 31.4135C171.951 31.4135 173.557 31.7147 174.934 32.3171C176.339 32.9195 177.53 33.7514 178.505 34.8128C179.481 35.8742 180.226 37.0933 180.743 38.4702C181.259 39.8184 181.517 41.2814 181.517 42.8591C181.517 43.2607 181.489 43.6767 181.431 44.107C181.402 44.5372 181.331 44.9102 181.216 45.2257H163.144V40.9228H178.032L175.364 42.9452C175.622 41.6256 175.551 40.4495 175.149 39.4168C174.776 38.3842 174.145 37.5666 173.256 36.9642C172.395 36.3618 171.348 36.0606 170.115 36.0606C168.939 36.0606 167.891 36.3618 166.974 36.9642C166.056 37.5379 165.353 38.3985 164.865 39.5459C164.406 40.6647 164.234 42.0272 164.349 43.6336C164.234 45.0679 164.421 46.3444 164.908 47.4632C165.425 48.5532 166.17 49.3995 167.146 50.0019C168.15 50.6043 169.297 50.9055 170.588 50.9055C171.879 50.9055 172.969 50.6329 173.858 50.0879C174.776 49.5429 175.493 48.8114 176.01 47.8935L180.571 50.1309C180.112 51.2497 179.394 52.2393 178.419 53.0999C177.444 53.9605 176.282 54.6346 174.934 55.1223C173.614 55.6099 172.151 55.8537 170.545 55.8537Z" fill="black"/>
</svg>

