<svg width="149" height="149" viewBox="0 0 149 149" fill="none" xmlns="http://www.w3.org/2000/svg">
<circle cx="74.5" cy="74.5" r="74.5" fill="#B9E901"/>
<circle cx="74.5005" cy="74.5" r="68.2455" fill="#601FEB" stroke="white" stroke-width="3.45536"/>
<path d="M69.3974 38.1939C66.5545 43.1959 64.076 47.2555 63.9302 47.2555C63.7115 47.2555 62.5452 45.2982 61.233 42.906C59.9209 40.5137 58.5359 38.5564 58.0985 38.5564C57.734 38.5564 56.2032 39.2813 54.7453 40.2237L52.0481 41.8186L54.8911 46.6756C56.4219 49.4303 58.9732 53.7798 60.5041 56.3896C62.0349 58.9993 63.5657 61.1741 63.9302 61.1741C64.5863 61.1741 80.9879 33.6994 81.0608 32.612C81.0608 32.1046 76.1768 29.1324 75.302 29.1324C74.9375 29.1324 72.3133 33.192 69.3974 38.1939Z" fill="white"/>
<path d="M85.4343 48.1255C82.4456 53.3449 79.8942 57.912 79.7484 58.2744C79.6026 58.5644 87.1838 58.8544 96.6603 58.8544H113.864V55.2297V51.6051H103.294C97.4622 51.6051 92.7239 51.3876 92.7239 51.0977C92.7239 50.8802 93.8174 48.6329 95.2024 46.1682L97.6809 41.6736L94.9108 40.0788C93.38 39.2814 91.8492 38.5565 91.5576 38.5565C91.1931 38.5565 88.4231 42.906 85.4343 48.1255Z" fill="white"/>
<path d="M39.2916 48.9954C37.8337 49.9378 36.4486 50.8077 36.23 51.0251C36.0113 51.2426 38.1253 55.3022 40.9682 60.1592C43.7383 64.9437 46.071 69.0758 46.071 69.2933C46.071 69.5107 43.8112 69.7282 40.9682 69.7282H35.8655V73.7153V77.7024H47.5289C53.9438 77.7024 59.1923 77.4849 59.1923 77.2674C59.1923 76.905 46.8728 55.3022 43.4467 49.6478L41.9888 47.4005L39.2916 48.9954Z" fill="white"/>
<path d="M90.5374 70.3082C90.5374 70.5982 103.513 93.2159 106.283 97.7829L107.741 100.03L110.438 98.4353C111.896 97.4929 113.281 96.623 113.5 96.4055C113.718 96.188 111.604 92.1285 108.761 87.2715C105.991 82.487 103.659 78.3549 103.659 78.1374C103.659 77.9199 105.991 77.7025 108.761 77.7025H113.864V73.8604V70.0907L102.201 70.0182C95.7859 70.0182 90.5374 70.1632 90.5374 70.3082Z" fill="white"/>
<path d="M83.1028 89.8087C78.1458 98.0003 69.3983 113.151 68.9609 114.166C68.5964 115.109 72.8244 118.298 74.4281 118.298C74.7926 118.298 77.4169 114.239 80.3327 109.237C83.1757 104.235 85.6541 100.175 85.7999 100.175C86.0186 100.175 87.185 102.132 88.4971 104.525C89.8092 106.917 91.2672 108.874 91.6316 108.874C92.069 108.874 93.5269 108.149 94.9849 107.207L97.682 105.612L94.7662 100.538C93.0896 97.7103 90.684 93.5058 89.299 91.1135C87.9139 88.7213 86.5289 86.474 86.1644 86.184C85.8728 85.8216 84.4878 87.4889 83.1028 89.8087Z" fill="white"/>
<path d="M35.8655 92.201V95.8256H46.4354C52.2671 95.8256 57.0054 96.0431 57.0054 96.333C57.0054 96.5505 55.912 98.7978 54.5269 101.335L51.9756 105.83L55.183 107.497C56.9325 108.439 58.5362 109.019 58.682 108.874C59.2652 108.149 70.1267 89.2288 70.1267 88.8663C70.1267 88.7213 62.3997 88.5763 52.9961 88.5763H35.8655V92.201Z" fill="white"/>
</svg>

